nColumns=19
nRows=70
DataType=double
version=3
OpenSimVersion=4.1
endheader
time	ground_force_calcn_r_vx	ground_force_calcn_r_vy	ground_force_calcn_r_vz	ground_force_calcn_r_px	ground_force_calcn_r_py	ground_force_calcn_r_pz	ground_force_calcn_r_mx	ground_force_calcn_r_my	ground_force_calcn_r_mz	ground_force_calcn_l_vx	ground_force_calcn_l_vy	ground_force_calcn_l_vz	ground_force_calcn_l_px	ground_force_calcn_l_py	ground_force_calcn_l_pz	ground_force_calcn_l_mx	ground_force_calcn_l_my	ground_force_calcn_l_mz
3.14	8.04761	544.21	-10.6438	-0.260772	0	-0.456004	-0.00768826	-0.519909	0.0101685	-3.99718	94.3478	4.41414	-0.197838	0	-0.844114	-0.0660682	1.55945	0.07296
3.15	8.25263	542.821	-10.2494	-0.260729	0	-0.456034	-0.00953143	-0.626936	0.0118376	-3.91376	95.3591	4.17039	-0.198671	0	-0.844112	-0.065628	1.59903	0.0699315
3.16	8.43104	541.577	-9.82892	-0.260693	0	-0.456078	-0.0113693	-0.730316	0.0132543	-3.84504	96.4809	3.97921	-0.199594	0	-0.844147	-0.0653072	1.63871	0.0675861
3.17	8.57119	540.486	-9.39653	-0.260657	0	-0.456132	-0.0131485	-0.829126	0.0144146	-3.79311	97.7157	3.8439	-0.200604	0	-0.844217	-0.0651453	1.67823	0.0660176
3.18	8.66153	539.536	-8.96383	-0.260617	0	-0.456195	-0.0148068	-0.922329	0.0153235	-3.75654	99.0704	3.76668	-0.201695	0	-0.844311	-0.065129	1.71763	0.0653049
3.19	8.68851	538.689	-8.5367	-0.260566	0	-0.456265	-0.0162689	-1.00867	0.0159846	-3.73149	100.551	3.74909	-0.202862	0	-0.84442	-0.0652061	1.75708	0.0655136
3.2	8.63584	537.889	-8.11468	-0.260504	0	-0.456345	-0.0174514	-1.08697	0.0163983	-3.71279	102.156	3.79213	-0.204094	0	-0.844538	-0.0653041	1.79682	0.0666995
3.21	8.48608	537.072	-7.69172	-0.260427	0	-0.456435	-0.0182701	-1.15629	0.0165599	-3.6955	103.875	3.8964	-0.205371	0	-0.844662	-0.0653538	1.83699	0.0689067
3.22	8.22464	536.172	-7.25853	-0.26033	0	-0.456536	-0.0186511	-1.21588	0.0164602	-3.67693	105.684	4.06182	-0.206665	0	-0.84479	-0.0653225	1.87752	0.0721602
3.23	7.8433	535.13	-6.80546	-0.260214	0	-0.456648	-0.0185455	-1.26531	0.0160915	-3.65775	107.555	4.28702	-0.207941	0	-0.844925	-0.0652347	1.9182	0.0764575
3.24	7.34239	533.894	-6.32568	-0.260078	0	-0.456774	-0.0179422	-1.30465	0.0154578	-3.6412	109.458	4.56951	-0.20916	0	-0.845071	-0.0651573	1.95869	0.081769
3.25	6.72968	532.419	-5.81775	-0.259925	0	-0.45691	-0.0168683	-1.33454	0.0145825	-3.63128	111.367	4.90653	-0.210293	0	-0.845231	-0.0651566	1.99828	0.0880388
3.26	6.01863	530.671	-5.28698	-0.259759	0	-0.457055	-0.0153819	-1.35624	0.013512	-3.63058	113.264	5.29543	-0.211316	0	-0.845411	-0.0652592	2.0359	0.0951848
3.27	5.22754	528.622	-4.74541	-0.259582	0	-0.457206	-0.0135637	-1.3716	0.0123128	-3.63915	115.133	5.73319	-0.212219	0	-0.845609	-0.0654397	2.07033	0.103095
3.28	4.3788	526.256	-4.21028	-0.259404	0	-0.457358	-0.0115058	-1.3828	0.011063	-3.65481	116.963	6.21557	-0.213002	0	-0.845828	-0.0656282	2.10027	0.111611
3.29	3.49674	523.568	-3.70178	-0.259231	0	-0.457506	-0.00929833	-1.39224	0.00984356	-3.67394	118.743	6.7368	-0.213664	0	-0.846067	-0.0657346	2.12457	0.120536
3.3	2.60455	520.559	-3.24042	-0.25907	0	-0.457644	-0.00701595	-1.40225	0.00872882	-3.69285	120.457	7.28922	-0.214211	0	-0.846324	-0.0656762	2.14228	0.129637
3.31	1.72408	517.241	-2.84561	-0.258928	0	-0.457766	-0.00471635	-1.41495	0.00778436	-3.70966	122.078	7.86303	-0.214644	0	-0.846598	-0.0654159	2.15271	0.138656
3.32	0.877204	513.634	-2.5341	-0.258813	0	-0.457866	-0.00244592	-1.43217	0.00706589	-3.72461	123.573	8.4459	-0.214965	0	-0.846882	-0.0649707	2.15556	0.147327
3.33	0.0862657	509.768	-2.31905	-0.258731	0	-0.45794	-0.000246276	-1.45531	0.00662054	-3.73873	124.901	9.02264	-0.215173	0	-0.84717	-0.064383	2.15086	0.155375
3.34	-0.627989	505.678	-2.21005	-0.258687	0	-0.457984	0.00184433	-1.48511	0.00649064	-3.75266	126.023	9.57595	-0.215269	0	-0.84745	-0.0636956	2.13903	0.162537
3.35	-1.24926	501.395	-2.21299	-0.258687	0	-0.457997	0.00379116	-1.52159	0.0067158	-3.76642	126.908	10.0887	-0.215259	0	-0.847715	-0.06294	2.12074	0.168591
3.36	-1.76289	496.948	-2.32846	-0.258733	0	-0.457977	0.00554835	-1.56404	0.00732835	-3.77843	127.544	10.5469	-0.215157	0	-0.847955	-0.0621152	2.09675	0.173386
3.37	-2.15349	492.371	-2.55095	-0.258831	0	-0.457925	0.00704674	-1.61116	0.00834732	-3.78463	127.938	10.9412	-0.214978	0	-0.848161	-0.0611744	2.06797	0.176853
3.38	-2.40645	487.708	-2.86906	-0.258981	0	-0.457845	0.00819661	-1.66118	0.00977229	-3.77805	128.114	11.2675	-0.214748	0	-0.84833	-0.0600206	2.03531	0.179004
3.39	-2.51104	483.018	-3.26651	-0.25919	0	-0.457739	0.00889988	-1.71196	0.0115775	-3.74943	128.116	11.5264	-0.214495	0	-0.848455	-0.0585204	1.99961	0.179901
3.4	-2.46306	478.372	-3.72411	-0.259453	0	-0.457615	0.00906742	-1.76106	0.0137098	-3.68885	127.995	11.7222	-0.214248	0	-0.848531	-0.0565329	1.96156	0.179647
3.41	-2.26811	473.849	-4.22112	-0.259767	0	-0.457477	0.00864413	-1.80591	0.0160873	-3.58739	127.808	11.8629	-0.214035	0	-0.84856	-0.0539391	1.92169	0.178367
3.42	-1.94244	469.526	-4.73589	-0.260123	0	-0.457333	0.00762917	-1.84412	0.0186008	-3.43836	127.614	11.9586	-0.213885	0	-0.848542	-0.0506635	1.88036	0.176208
3.43	-1.50989	465.478	-5.247	-0.260508	0	-0.45719	0.00607775	-1.87369	0.0211208	-3.23749	127.466	12.0212	-0.21382	0	-0.848482	-0.0466778	1.83779	0.17332
3.44	-0.998425	461.775	-5.73477	-0.26091	0	-0.457055	0.00409297	-1.89302	0.0235093	-2.98288	127.412	12.0625	-0.213856	0	-0.848385	-0.0420013	1.79407	0.169849
3.45	-0.437663	458.473	-6.18225	-0.261315	0	-0.456932	0.00181473	-1.90102	0.0256342	-2.67511	127.489	12.0945	-0.214005	0	-0.848257	-0.0367043	1.74923	0.165945
3.46	0.143917	455.617	-6.57562	-0.261713	0	-0.456827	-0.000599246	-1.89711	0.0273797	-2.31823	127.725	12.1294	-0.214272	0	-0.848107	-0.0309169	1.7034	0.161763
3.47	0.721624	453.231	-6.90398	-0.262091	0	-0.45674	-0.00299496	-1.88105	0.0286536	-1.92045	128.142	12.1794	-0.214654	0	-0.847943	-0.0248306	1.65682	0.157474
3.48	1.27611	451.323	-7.15945	-0.262442	0	-0.456674	-0.00523923	-1.85296	0.0293939	-1.49397	128.751	12.2564	-0.215144	0	-0.847772	-0.018681	1.60994	0.153257
3.49	1.79282	449.888	-7.33647	-0.262761	0	-0.45663	-0.00722614	-1.81332	0.0295705	-1.05399	129.558	12.3713	-0.215727	0	-0.847603	-0.0127186	1.56339	0.149286
3.5	2.2601	448.907	-7.43102	-0.263044	0	-0.456607	-0.00887579	-1.76293	0.0291828	-0.616601	130.561	12.5333	-0.216391	0	-0.847444	-0.00716887	1.51796	0.145717
3.51	2.66792	448.348	-7.44056	-0.263292	0	-0.456606	-0.0101333	-1.70291	0.0282607	-0.196379	131.75	12.7477	-0.217117	0	-0.8473	-0.00219788	1.47455	0.142672
3.52	3.00718	448.172	-7.36497	-0.263506	0	-0.456627	-0.0109697	-1.63485	0.0268661	0.194645	133.11	13.0163	-0.217883	0	-0.847176	0.00209696	1.43402	0.140227
3.53	3.26891	448.328	-7.20704	-0.263687	0	-0.456667	-0.0113792	-1.56064	0.0250879	0.54779	134.615	13.3371	-0.21867	0	-0.847072	0.00568519	1.39709	0.138418
3.54	3.44606	448.758	-6.97319	-0.263836	0	-0.456723	-0.0113838	-1.48244	0.0230355	0.857858	136.237	13.7051	-0.219458	0	-0.84699	0.00859061	1.36428	0.137243
3.55	3.53732	449.394	-6.67387	-0.263958	0	-0.456791	-0.0110404	-1.40262	0.02083	1.12275	137.939	14.1121	-0.220232	0	-0.846928	0.0108724	1.33577	0.136659
3.56	3.54747	450.172	-6.32293	-0.264054	0	-0.456869	-0.0104309	-1.32367	0.0185918	1.34313	139.679	14.5489	-0.220977	0	-0.846889	0.0126102	1.3114	0.136594
3.57	3.48414	451.026	-5.93644	-0.264127	0	-0.456949	-0.00964124	-1.24807	0.0164272	1.52234	141.41	15.0052	-0.221683	0	-0.846871	0.0138945	1.29065	0.136953
3.58	3.35591	451.899	-5.53141	-0.264178	0	-0.457029	-0.00874838	-1.17804	0.0144196	1.66512	143.082	15.4704	-0.222342	0	-0.846878	0.0148117	1.27275	0.137613
3.59	3.17314	452.74	-5.12505	-0.264209	0	-0.457104	-0.0078187	-1.11556	0.0126283	1.77739	144.653	15.9337	-0.222947	0	-0.846906	0.0154421	1.25676	0.138433
3.6	2.94772	453.512	-4.73387	-0.26422	0	-0.457172	-0.00690503	-1.06235	0.0110891	1.86602	146.087	16.3844	-0.223495	0	-0.846951	0.0158608	1.24171	0.139264
3.61	2.69136	454.191	-4.37343	-0.264215	0	-0.457226	-0.00604246	-1.01972	0.00981894	1.93833	147.359	16.8127	-0.223987	0	-0.847007	0.016138	1.22687	0.139978
3.62	2.4144	454.766	-4.05748	-0.264195	0	-0.457265	-0.00524752	-0.988401	0.00881866	2.00153	148.448	17.2094	-0.224428	0	-0.847064	0.0163373	1.21169	0.14047
3.63	2.12668	455.229	-3.79733	-0.264164	0	-0.457285	-0.00452463	-0.968524	0.00807903	2.06279	149.343	17.5665	-0.224823	0	-0.847113	0.0165169	1.1958	0.140656
3.64	1.83766	455.579	-3.6014	-0.264123	0	-0.457286	-0.0038711	-0.959693	0.00758647	2.12854	150.036	17.8765	-0.225176	0	-0.847145	0.0167244	1.17887	0.14046
3.65	1.55637	455.82	-3.47499	-0.264073	0	-0.457264	-0.00328142	-0.961045	0.00732663	2.20357	150.525	18.1329	-0.225491	0	-0.847155	0.0169904	1.16061	0.139812
3.66	1.29162	455.949	-3.42047	-0.264014	0	-0.457222	-0.00275191	-0.971444	0.00728763	2.29049	150.811	18.3307	-0.225767	0	-0.847133	0.0173252	1.14074	0.138653
3.67	1.05132	455.969	-3.43786	-0.263949	0	-0.457159	-0.0022821	-0.98977	0.00746254	2.38954	150.896	18.4665	-0.226006	0	-0.847079	0.0177214	1.11908	0.136952
3.68	0.840894	455.877	-3.52555	-0.26388	0	-0.457076	-0.00187257	-1.01518	0.00785097	2.49853	150.78	18.5382	-0.226204	0	-0.846985	0.0181552	1.09562	0.134705
3.69	0.66188	455.673	-3.68117	-0.263808	0	-0.456976	-0.00152108	-1.04719	0.0084598	2.61279	150.461	18.5458	-0.22636	0	-0.846854	0.0185896	1.07051	0.13195
3.7	0.51152	455.353	-3.90183	-0.263737	0	-0.45686	-0.00121967	-1.08574	0.00930351	2.72575	149.933	18.4902	-0.226472	0	-0.846684	0.0189787	1.04395	0.128742
3.71	0.382495	454.919	-4.18406	-0.263665	0	-0.456728	-0.000951014	-1.13109	0.010403	2.82978	149.193	18.3734	-0.226539	0	-0.84648	0.0192738	1.01616	0.125142
3.72	0.26256	454.372	-4.52342	-0.263593	0	-0.456582	-0.000683876	-1.18348	0.0117819	2.91748	148.235	18.1983	-0.226561	0	-0.846243	0.0194333	0.987392	0.121219
3.73	0.135928	453.717	-4.91364	-0.26352	0	-0.456424	-0.00037237	-1.24294	0.0134607	2.98264	147.058	17.9686	-0.226537	0	-0.845977	0.0194283	0.957907	0.117044
3.74	-0.0132373	452.961	-5.347	-0.263442	0	-0.456255	3.82572e-05	-1.30911	0.0154534	3.02078	145.664	17.6881	-0.226469	0	-0.845688	0.0192469	0.928099	0.1127
3.75	-0.198986	452.115	-5.81529	-0.263358	0	-0.456077	0.000607888	-1.38118	0.0177653	3.02956	144.059	17.3601	-0.22636	0	-0.84538	0.0188947	0.898465	0.108271
3.76	-0.433547	451.184	-6.31003	-0.263262	0	-0.455894	0.0014008	-1.45778	0.0203878	3.00878	142.249	16.9872	-0.226212	0	-0.845056	0.0183913	0.869502	0.103835
3.77	-0.725926	450.171	-6.82269	-0.263155	0	-0.455706	0.00247861	-1.53707	0.0232955	2.96037	140.245	16.5722	-0.226026	0	-0.84472	0.0177647	0.841587	0.099447
3.78	-1.08007	449.077	-7.34505	-0.263034	0	-0.455513	0.00388845	-1.61675	0.0264435	2.88773	138.056	16.1177	-0.225807	0	-0.844375	0.0170482	0.81504	0.0951535
3.79	-1.49423	447.896	-7.86995	-0.262901	0	-0.455318	0.00565244	-1.69432	0.0297708	2.79533	135.693	15.6264	-0.225558	0	-0.844022	0.0162767	0.790119	0.0909901
3.8	-1.96102	446.621	-8.39207	-0.26276	0	-0.455123	0.00775995	-1.76732	0.0332082	2.68779	133.169	15.1025	-0.225285	0	-0.843657	0.0154812	0.767031	0.0869876
3.81	-2.46849	445.245	-8.9079	-0.262614	0	-0.454928	0.0101656	-1.83358	0.036684	2.56911	130.502	14.5515	-0.224992	0	-0.843282	0.0146841	0.745906	0.0831713
3.82	-3.00302	443.766	-9.41512	-0.262463	0	-0.454735	0.0127987	-1.89131	0.0401267	2.4426	127.713	13.9807	-0.224682	0	-0.842893	0.0139019	0.726871	0.0795704
3.83	-3.55496	442.188	-9.91206	-0.262305	0	-0.454546	0.0155893	-1.93909	0.0434665	2.31072	124.823	13.3988	-0.224354	0	-0.842489	0.0131433	0.709986	0.076212
